<?xml version="1.0" encoding="utf-8"?>
<!-- Generator: Adobe Illustrator 24.0.1, SVG Export Plug-In . SVG Version: 6.00 Build 0)  -->
<svg version="1.1" id="Layer_1" xmlns="http://www.w3.org/2000/svg" xmlns:xlink="http://www.w3.org/1999/xlink" x="0px" y="0px"
	 viewBox="0 0 500 500" style="enable-background:new 0 0 500 500;" xml:space="preserve">
<title>bat</title>
<circle cx="248.5" cy="252.6" r="97"/>
<rect x="234.5" y="17.5" width="27.9" height="112.4"/>
<rect x="234.5" y="375.2" width="27.9" height="112.4"/>
<rect x="371.2" y="238.6" width="112.4" height="27.9"/>
<rect x="13.4" y="238.6" width="112.4" height="27.9"/>
<rect x="318.8" y="112.1" transform="matrix(0.7071 -0.7071 0.7071 0.7071 20.7095 302.0763)" width="112.4" height="27.9"/>
<rect x="65.8" y="365.1" transform="matrix(0.7071 -0.7071 0.7071 0.7071 -232.2856 197.2768)" width="112.4" height="27.9"/>
<rect x="361" y="322.9" transform="matrix(0.7071 -0.7071 0.7071 0.7071 -158.2369 376.1901)" width="27.9" height="112.4"/>
<rect x="108" y="69.9" transform="matrix(0.7071 -0.7071 0.7071 0.7071 -53.4381 123.1909)" width="27.9" height="112.4"/>
</svg>
