<?xml version="1.0" encoding="UTF-8"?><svg id="weather" xmlns="http://www.w3.org/2000/svg" viewBox="0 0 671.36 101.66"><g><circle cx="51.34" cy="50.83" r="19.81"/><rect x="48.49" y="2.82" width="5.7" height="22.95"/><rect x="48.49" y="75.89" width="5.7" height="22.95"/><rect x="85.03" y="39.36" width="5.7" height="22.95" transform="translate(138.71 -37.04) rotate(90)"/><rect x="11.96" y="39.36" width="5.7" height="22.95" transform="translate(65.64 36.02) rotate(90)"/><rect x="74.33" y="13.52" width="5.7" height="22.95" transform="translate(40.28 -47.25) rotate(45)"/><rect x="22.66" y="65.19" width="5.7" height="22.95" transform="translate(61.68 4.42) rotate(45)"/><rect x="74.33" y="65.19" width="5.7" height="22.95" transform="translate(185.95 76.3) rotate(135)"/><rect x="22.66" y="13.52" width="5.7" height="22.95" transform="translate(61.22 24.64) rotate(135)"/></g><g><g><rect x="155.07" y="2.82" width="5.7" height="22.95"/><rect x="118.54" y="39.36" width="5.7" height="22.95" transform="translate(172.21 -70.55) rotate(90)"/><rect x="180.9" y="13.52" width="5.7" height="22.95" transform="translate(71.5 -122.61) rotate(45)"/><rect x="129.24" y="65.19" width="5.7" height="22.95" transform="translate(92.9 -70.94) rotate(45)"/><rect x="129.24" y="13.52" width="5.7" height="22.95" transform="translate(243.16 -50.72) rotate(135)"/><path d="M157.99,51.51c.08,0,.16,.01,.24,.01,1.14-7.25,6.59-13.06,13.64-14.74-3.58-3.56-8.52-5.76-13.96-5.76-10.94,0-19.81,8.87-19.81,19.81,0,4.16,1.29,8.02,3.48,11.21,2.86-6.21,9.13-10.53,16.41-10.53Z"/></g><path d="M222.23,70.84c0-7.91-5.47-14.53-12.82-16.33-1.03-6.2-6.4-10.94-12.89-10.94-1.98,0-3.85,.45-5.53,1.24-3.05-3.07-7.27-4.98-11.94-4.98-8.39,0-15.33,6.15-16.6,14.19-.08,0-.15-.01-.23-.01-9.29,0-16.82,7.53-16.82,16.82,0,3.75,1.24,7.2,3.32,10l-9.78,6.82h67.75l-.35-.05c8.87-.47,15.92-7.79,15.92-16.78Z"/></g><path d="M335.68,59.53c0-9.32-6.44-17.11-15.1-19.23-1.21-7.31-7.54-12.88-15.19-12.88-2.33,0-4.54,.53-6.52,1.46-3.59-3.62-8.56-5.86-14.07-5.86-9.89,0-18.06,7.25-19.55,16.71-.09,0-.18-.01-.27-.01-10.94,0-19.81,8.87-19.81,19.81,0,4.42,1.46,8.48,3.91,11.78l-11.52,8.04h79.79l-.42-.05c10.44-.56,18.74-9.18,18.74-19.76Z"/><path d="M419.66,69.78c-13.86,0-25.1-11.24-25.1-25.1s11.24-25.1,25.1-25.1c.68,0,1.34,.03,2.01,.09-5.69-3.59-12.42-5.68-19.64-5.68-20.34,0-36.84,16.49-36.84,36.84s16.49,36.84,36.84,36.84c16.07,0,29.73-10.3,34.76-24.65-4.49,4.19-10.51,6.76-17.13,6.76Z"/><g><path d="M567.53,70.84c0-7.91-5.47-14.53-12.82-16.33-1.03-6.2-6.4-10.94-12.89-10.94-1.98,0-3.85,.45-5.53,1.24-3.05-3.07-7.27-4.98-11.94-4.98-8.39,0-15.33,6.15-16.6,14.19-.08,0-.15-.01-.23-.01-9.29,0-16.82,7.53-16.82,16.82,0,3.75,1.24,7.2,3.32,10l-9.78,6.82h67.75l-.35-.05c8.87-.47,15.92-7.79,15.92-16.78Z"/><path d="M497.7,44.39c-7.48,0-13.54-6.06-13.54-13.54s6.06-13.54,13.54-13.54c.36,0,.72,.02,1.08,.05-3.07-1.94-6.7-3.06-10.59-3.06-10.97,0-19.87,8.89-19.87,19.87s8.89,19.87,19.87,19.87c8.67,0,16.03-5.55,18.75-13.29-2.42,2.26-5.67,3.65-9.24,3.65Z"/></g><path d="M667.75,55.79c0-20.44-15.69-37.21-35.68-38.95V5.55h-6v11.22c-20.41,1.32-36.55,18.28-36.55,39.02h36.55v20.46c0,11-4.6,11-6.81,11-3.5,0-6.81,0-6.81-10.08h-6c0,11.12,3.95,16.08,12.81,16.08,5.85,0,12.81-2.95,12.81-17v-20.46h35.68Z"/></svg>